<?xml version="1.0" encoding="UTF-8"?>
<svg xmlns="http://www.w3.org/2000/svg" viewBox="0 0 24 24" fill="#4299e1" stroke-width="0.5" stroke="#4299e1">
  <path d="M12,2C6.48,2,2,6.48,2,12s4.48,10,10,10s10-4.48,10-10S17.52,2,12,2z M7.77,9.25l3.12-1.56C11.18,7.53,11.59,7.5,12,7.5s0.82,0.03,1.11,0.19l3.12,1.56c0.76,0.38,1.12,1.26,0.9,2.04l-0.84,2.93c-0.53,1.85-2.28,3.18-4.29,3.18s-3.76-1.33-4.29-3.18l-0.84-2.93C6.65,10.51,7.01,9.63,7.77,9.25z M8.5,11c-0.55,0-1-0.45-1-1s0.45-1,1-1s1,0.45,1,1S9.05,11,8.5,11z M15.5,11c-0.55,0-1-0.45-1-1s0.45-1,1-1s1,0.45,1,1S16.05,11,15.5,11z"/>
  <path d="M13.95,15.5c-0.55,0.34-1.26,0.34-1.81,0c-0.27-0.17-0.62-0.08-0.79,0.19c-0.17,0.27-0.08,0.62,0.19,0.79c0.45,0.28,0.97,0.42,1.49,0.42s1.04-0.14,1.49-0.42c0.27-0.17,0.35-0.52,0.19-0.79S14.22,15.33,13.95,15.5z"/>
</svg>